<svg xmlns="http://www.w3.org/2000/svg" viewBox="6809.484 -4775.517 15.291 15.291">
  <defs>
    <style>
      .cls-1 {
        fill: #fff;
      }
    </style>
  </defs>
  <g id="icon_search" transform="translate(6548.592 -4807.842)">
    <path id="icon_search-2" data-name="icon_search" class="cls-1" d="M3.154,10.732A6.476,6.476,0,0,1,1.816,6.743,6.709,6.709,0,0,1,8.506,0a6.79,6.79,0,0,1,6.785,6.743,6.79,6.79,0,0,1-6.785,6.743,6.371,6.371,0,0,1-4.014-1.33L1.625,15.006a1.036,1.036,0,0,1-.669.285,1.036,1.036,0,0,1-.669-.285.914.914,0,0,1,0-1.33Zm5.352.76A4.8,4.8,0,0,0,13.38,6.743a4.874,4.874,0,0,0-9.748,0A4.8,4.8,0,0,0,8.506,11.492Z" transform="translate(260.893 32.326)"/>
  </g>
</svg>
